<?xml version="1.0" standalone="no"?>
<!DOCTYPE svg PUBLIC "-//W3C//DTD SVG 20010904//EN"
 "http://www.w3.org/TR/2001/REC-SVG-20010904/DTD/svg10.dtd">
<svg version="1.0" xmlns="http://www.w3.org/2000/svg"
 width="56.000000pt" height="532.000000pt" viewBox="0 0 56.000000 532.000000"
 preserveAspectRatio="xMidYMid meet">

<g transform="translate(0.000000,532.000000) scale(0.100000,-0.100000)"
fill="#000000" stroke="none">
<path d="M50 5230 c0 -6 37 -10 90 -10 53 0 90 4 90 10 0 6 -37 10 -90 10 -53
0 -90 -4 -90 -10z"/>
<path d="M330 5230 c0 -6 37 -10 90 -10 53 0 90 4 90 10 0 6 -37 10 -90 10
-53 0 -90 -4 -90 -10z"/>
<path d="M50 5180 c0 -6 37 -10 90 -10 53 0 90 4 90 10 0 6 -37 10 -90 10 -53
0 -90 -4 -90 -10z"/>
<path d="M330 5180 c0 -6 37 -10 90 -10 53 0 90 4 90 10 0 6 -37 10 -90 10
-53 0 -90 -4 -90 -10z"/>
<path d="M50 5130 c0 -6 37 -10 90 -10 53 0 90 4 90 10 0 6 -37 10 -90 10 -53
0 -90 -4 -90 -10z"/>
<path d="M330 5130 c0 -6 37 -10 90 -10 53 0 90 4 90 10 0 6 -37 10 -90 10
-53 0 -90 -4 -90 -10z"/>
<path d="M90 5003 c-95 -49 -83 -183 20 -214 53 -16 107 10 134 65 17 36 18
43 5 79 -25 71 -96 102 -159 70z m121 -32 c64 -65 20 -171 -71 -171 -91 0
-135 106 -71 171 23 23 38 29 71 29 33 0 48 -6 71 -29z"/>
<path d="M160 4946 c-16 -31 -7 -56 20 -56 11 0 20 -5 20 -11 0 -6 -16 -9 -37
-7 -37 3 -38 4 -35 41 3 35 2 37 -27 37 -30 0 -31 -1 -31 -50 0 -27 5 -50 10
-50 6 0 10 10 10 22 l0 21 23 -21 c13 -12 30 -22 39 -22 9 0 18 -6 21 -12 7
-19 37 23 34 47 -1 12 -11 21 -24 23 -31 5 -29 22 2 22 29 0 31 6 11 26 -19
19 -20 18 -36 -10z m-40 -26 c0 -5 -7 -10 -15 -10 -8 0 -15 5 -15 10 0 6 7 10
15 10 8 0 15 -4 15 -10z"/>
<path d="M370 5003 c-95 -49 -83 -183 20 -214 53 -16 107 10 134 65 17 36 18
43 5 79 -25 71 -96 102 -159 70z m106 -47 c19 -20 18 -26 -6 -26 -11 0 -20 -4
-20 -10 0 -5 9 -10 20 -10 11 0 20 -2 20 -4 0 -2 2 -11 5 -18 3 -8 -4 -25 -16
-39 -14 -16 -23 -20 -26 -11 -3 6 -12 12 -22 12 -9 0 -27 7 -39 16 -20 14 -22
14 -22 0 0 -9 -4 -16 -10 -16 -5 0 -10 23 -10 50 0 48 1 50 28 50 15 0 32 -4
38 -10 6 -6 15 -3 24 10 17 24 18 24 36 6z"/>
<path d="M370 4920 c0 -5 5 -10 10 -10 6 0 10 5 10 10 0 6 -4 10 -10 10 -5 0
-10 -4 -10 -10z"/>
<path d="M416 4902 c-11 -18 2 -32 30 -32 13 0 24 5 24 10 0 6 -9 10 -19 10
-11 0 -21 5 -23 12 -3 9 -6 9 -12 0z"/>
<path d="M85 4670 c-68 -68 -68 -70 -50 -90 10 -11 24 -20 32 -20 7 0 13 -6
13 -13 0 -8 9 -22 20 -32 21 -19 22 -18 92 53 71 70 72 71 53 92 -10 11 -24
20 -32 20 -7 0 -13 6 -13 13 0 13 -30 47 -41 47 -3 0 -36 -31 -74 -70z m95 15
c5 -14 16 -25 24 -25 34 0 25 -25 -25 -76 -29 -30 -57 -54 -61 -54 -5 0 -13
11 -18 25 -5 14 -16 25 -24 25 -34 0 -25 25 25 76 29 30 57 54 61 54 5 0 13
-11 18 -25z"/>
<path d="M112 4647 c-26 -28 -28 -42 -6 -33 10 4 25 -1 36 -10 24 -22 36 -10
14 14 -9 11 -14 26 -10 36 9 23 -9 20 -34 -7z"/>
<path d="M371 4666 c-55 -56 -62 -67 -51 -80 7 -9 19 -16 26 -16 8 0 19 -11
24 -24 16 -44 30 -41 98 27 56 56 64 68 53 81 -8 9 -19 16 -27 16 -7 0 -19 12
-26 27 -7 14 -18 28 -23 30 -6 2 -39 -26 -74 -61z m55 -12 c-4 -10 1 -25 10
-36 22 -24 10 -36 -14 -14 -11 9 -26 14 -36 10 -22 -9 -20 5 6 33 25 27 43 30
34 7z"/>
<path d="M110 4444 c0 -11 -6 -15 -20 -11 -23 6 -46 -18 -42 -43 2 -10 -4 -20
-13 -23 -21 -9 -20 -57 1 -57 11 0 15 -6 11 -20 -6 -23 18 -46 45 -42 11 2 18
-3 18 -12 0 -11 9 -16 30 -16 21 0 30 5 30 16 0 9 7 14 18 12 27 -4 51 19 45
42 -4 14 0 20 11 20 11 0 16 9 16 30 0 21 -5 30 -16 30 -11 0 -15 6 -11 20 6
23 -18 46 -43 42 -10 -2 -20 4 -23 13 -9 21 -57 20 -57 -1z m42 -16 c3 -7 17
-13 33 -13 24 -1 29 -6 30 -29 0 -15 7 -31 15 -37 13 -8 13 -10 0 -18 -8 -6
-15 -22 -15 -37 -1 -22 -7 -28 -29 -29 -15 0 -31 -7 -37 -15 -8 -13 -10 -13
-18 0 -6 8 -22 15 -37 15 -22 1 -28 7 -29 29 0 15 -7 31 -15 37 -13 8 -13 10
0 18 8 6 15 22 15 37 1 23 6 28 30 29 16 0 30 6 33 13 2 7 7 12 12 12 5 0 10
-5 12 -12z"/>
<path d="M100 4380 c-11 -11 -20 -29 -20 -40 0 -26 34 -60 60 -60 26 0 60 34
60 60 0 11 -9 29 -20 40 -11 11 -29 20 -40 20 -11 0 -29 -9 -40 -20z m70 -15
c26 -32 -13 -81 -47 -59 -35 22 -23 74 17 74 10 0 23 -7 30 -15z"/>
<path d="M400 4445 c0 -8 -8 -16 -17 -16 -10 -1 -25 -2 -33 -3 -8 0 -16 -8
-16 -16 -1 -8 -2 -23 -3 -32 0 -10 -8 -18 -16 -18 -8 0 -15 -9 -15 -20 0 -11
7 -20 15 -20 8 0 16 -8 16 -17 1 -10 2 -25 3 -33 0 -8 8 -16 16 -16 8 -1 23
-2 33 -3 9 0 17 -8 17 -16 0 -8 9 -15 20 -15 11 0 20 7 20 15 0 8 8 16 18 16
9 1 24 2 32 3 8 0 16 8 16 16 1 8 2 23 3 33 0 9 8 17 16 17 8 0 15 9 15 20 0
11 -7 20 -15 20 -8 0 -16 8 -16 18 -1 9 -2 24 -3 32 0 8 -8 16 -16 16 -8 1
-23 2 -32 3 -10 0 -18 8 -18 16 0 8 -9 15 -20 15 -11 0 -20 -7 -20 -15z m62
-62 c38 -34 11 -103 -40 -103 -54 0 -81 62 -45 102 20 22 61 23 85 1z"/>
<path d="M80 4158 c-70 -37 -58 -146 19 -163 15 -3 38 -2 52 4 20 7 29 4 56
-22 42 -40 56 -26 16 16 -26 27 -29 36 -22 56 12 31 3 74 -20 95 -25 22 -72
29 -101 14z m90 -28 c43 -43 11 -120 -50 -120 -38 0 -70 32 -70 70 0 38 32 70
70 70 17 0 39 -9 50 -20z"/>
<path d="M110 4121 c0 -5 9 -11 20 -14 11 -3 20 -12 20 -21 0 -9 5 -16 10 -16
16 0 11 26 -8 43 -20 18 -42 22 -42 8z"/>
<path d="M360 4158 c-70 -37 -58 -146 19 -163 15 -3 38 -2 52 4 20 7 29 4 56
-22 42 -40 56 -26 16 16 -26 27 -29 36 -22 56 12 31 3 74 -20 95 -25 22 -72
29 -101 14z m90 -28 c43 -43 11 -120 -50 -120 -38 0 -70 32 -70 70 0 38 32 70
70 70 17 0 39 -9 50 -20z"/>
<path d="M390 4121 c0 -5 9 -11 20 -14 11 -3 20 -12 20 -21 0 -9 5 -16 10 -16
16 0 11 26 -8 43 -20 18 -42 22 -42 8z"/>
<path d="M77 3847 l-48 -42 3 -70 3 -70 43 -3 42 -3 0 41 c0 34 3 41 18 38 12
-2 18 -14 20 -41 l3 -38 42 3 42 3 3 71 3 70 -50 42 c-27 23 -56 42 -63 42 -7
-1 -35 -20 -61 -43z m111 -9 c40 -32 41 -35 41 -95 1 -61 0 -63 -24 -63 -20 0
-25 5 -25 24 0 24 -23 56 -40 56 -17 0 -40 -32 -40 -56 0 -19 -5 -24 -25 -24
-24 0 -25 2 -24 63 0 60 1 63 41 95 22 17 44 32 48 32 4 0 26 -15 48 -32z"/>
<path d="M361 3849 l-52 -41 3 -72 3 -71 43 -3 42 -3 0 40 c0 34 3 41 20 41
17 0 20 -7 20 -41 l0 -40 43 3 42 3 3 71 3 70 -50 42 c-27 23 -54 42 -59 42
-5 0 -33 -19 -61 -41z m107 -11 c41 -32 42 -33 42 -95 0 -61 -1 -63 -25 -63
-20 0 -25 5 -25 24 0 24 -23 56 -40 56 -17 0 -40 -32 -40 -56 0 -19 -5 -24
-25 -24 -24 0 -25 2 -24 63 0 60 1 63 41 95 22 17 43 32 47 32 4 0 26 -14 49
-32z"/>
<path d="M95 3590 c-12 -13 -16 -29 -13 -52 4 -23 0 -36 -13 -48 -10 -8 -21
-27 -24 -41 -6 -23 -2 -28 34 -43 23 -9 50 -16 61 -16 11 0 38 7 61 16 36 15
40 20 34 43 -3 14 -14 33 -24 41 -13 12 -17 25 -13 48 6 41 -20 72 -58 72 -15
0 -35 -9 -45 -20z m80 -40 c0 -33 -2 -35 -35 -35 -29 0 -36 4 -38 23 -6 40 5
54 40 50 30 -3 33 -6 33 -38z m35 -75 c21 -25 7 -49 -33 -59 -48 -12 -111 2
-115 27 -7 33 17 47 78 47 38 0 62 -5 70 -15z"/>
<path d="M379 3589 c-16 -16 -20 -29 -15 -51 4 -22 1 -34 -13 -46 -10 -10 -22
-29 -25 -43 -5 -24 -2 -29 34 -43 51 -20 69 -20 121 0 36 15 40 20 34 43 -3
14 -14 33 -24 41 -13 11 -16 25 -13 51 3 30 -1 40 -19 53 -31 22 -55 20 -80
-5z m76 -39 c0 -33 -2 -35 -35 -35 -29 0 -36 4 -38 23 -6 40 5 54 40 50 30 -3
33 -6 33 -38z m33 -72 c34 -34 -3 -68 -74 -68 -63 0 -95 35 -62 68 16 16 120
16 136 0z"/>
<path d="M74 3318 c-32 -15 -44 -51 -44 -133 l0 -75 75 0 c114 0 145 24 145
110 0 51 -16 85 -47 99 -30 14 -101 13 -129 -1z m138 -25 c13 -12 18 -31 18
-71 0 -80 -14 -92 -107 -92 l-73 0 0 72 c0 93 12 108 88 108 38 0 61 -5 74
-17z"/>
<path d="M80 3260 c0 -6 27 -10 60 -10 33 0 60 4 60 10 0 6 -27 10 -60 10 -33
0 -60 -4 -60 -10z"/>
<path d="M80 3220 c0 -6 27 -10 60 -10 33 0 60 4 60 10 0 6 -27 10 -60 10 -33
0 -60 -4 -60 -10z"/>
<path d="M80 3180 c0 -5 16 -10 35 -10 19 0 35 5 35 10 0 6 -16 10 -35 10 -19
0 -35 -4 -35 -10z"/>
<path d="M339 3301 c-27 -28 -29 -34 -29 -110 l0 -81 81 0 c76 0 82 2 110 29
23 24 29 38 29 75 0 85 -31 116 -116 116 -37 0 -51 -6 -75 -29z m153 -8 c13
-12 18 -31 18 -71 0 -80 -14 -92 -107 -92 l-73 0 0 72 c0 93 12 108 88 108 38
0 61 -5 74 -17z"/>
<path d="M365 3260 c3 -5 31 -10 61 -10 30 0 54 5 54 10 0 6 -27 10 -61 10
-37 0 -58 -4 -54 -10z"/>
<path d="M365 3220 c3 -5 31 -10 61 -10 30 0 54 5 54 10 0 6 -27 10 -61 10
-37 0 -58 -4 -54 -10z"/>
<path d="M360 3180 c0 -5 16 -10 35 -10 19 0 35 5 35 10 0 6 -16 10 -35 10
-19 0 -35 -4 -35 -10z"/>
<path d="M65 3023 c-11 -10 -15 -27 -12 -46 3 -20 -2 -36 -15 -49 -27 -27 -22
-47 18 -64 42 -17 106 -11 125 12 13 16 -2 64 -20 64 -5 0 -7 15 -4 33 9 57
-52 91 -92 50z m70 -38 c0 -27 -3 -30 -30 -30 -21 0 -31 5 -33 18 -6 33 6 49
35 45 24 -3 28 -8 28 -33z m19 -61 c21 -8 21 -40 0 -48 -37 -14 -114 -2 -114
18 0 31 67 48 114 30z"/>
<path d="M188 3023 c24 -17 29 -52 10 -71 -8 -8 -5 -14 15 -23 26 -12 38 -49
17 -49 -5 0 -10 -5 -10 -10 0 -7 6 -7 20 0 25 13 26 34 2 58 -13 13 -18 29
-15 49 5 33 -17 63 -45 62 -14 0 -13 -3 6 -16z"/>
<path d="M345 3023 c-11 -10 -15 -27 -12 -46 3 -20 -2 -36 -15 -49 -34 -34
-17 -65 44 -74 41 -7 108 18 108 40 0 9 -8 24 -19 35 -12 12 -17 27 -14 45 10
53 -54 87 -92 49z m70 -38 c0 -27 -3 -30 -30 -30 -21 0 -31 5 -33 18 -6 33 6
49 35 45 24 -3 28 -8 28 -33z m19 -61 c21 -8 21 -40 0 -48 -9 -3 -31 -6 -49
-6 -60 0 -81 20 -53 48 13 13 75 16 102 6z"/>
<path d="M468 3023 c24 -17 29 -52 10 -71 -8 -8 -5 -14 15 -23 26 -12 38 -49
17 -49 -5 0 -10 -5 -10 -10 0 -7 7 -7 20 0 23 12 20 46 -5 65 -8 7 -11 22 -8
38 6 31 -19 67 -46 66 -12 0 -10 -4 7 -16z"/>
<path d="M112 2768 c-7 -7 -12 -19 -12 -27 0 -8 -6 -22 -14 -30 -24 -26 -29
-66 -12 -80 9 -8 16 -22 16 -32 0 -16 8 -19 50 -19 42 0 50 3 50 19 0 10 7 21
15 25 22 8 19 63 -5 83 -11 10 -20 27 -20 39 0 32 -44 46 -68 22z m53 -33 c0
-22 -31 -33 -47 -17 -17 17 -1 44 24 40 15 -2 23 -10 23 -23z m33 -67 c2 -16
-1 -28 -7 -28 -5 0 -11 -10 -13 -22 -4 -28 -28 -36 -28 -9 0 12 -4 21 -10 21
-5 0 -10 -9 -10 -21 0 -27 -24 -19 -28 9 -2 12 -8 22 -13 22 -11 0 -12 43 -2
54 4 4 30 6 58 4 46 -3 50 -5 53 -30z"/>
<path d="M392 2768 c-7 -7 -12 -22 -12 -34 0 -12 -6 -24 -14 -27 -22 -9 -29
-57 -11 -76 8 -10 15 -25 15 -34 0 -14 10 -17 50 -17 42 0 50 3 50 19 0 10 7
21 15 25 22 8 19 63 -5 83 -11 10 -20 27 -20 39 0 32 -44 46 -68 22z m53 -33
c0 -22 -31 -33 -47 -17 -17 17 -1 44 24 40 15 -2 23 -10 23 -23z m33 -67 c2
-16 -1 -28 -7 -28 -5 0 -11 -10 -13 -22 -4 -28 -28 -36 -28 -9 0 12 -4 21 -10
21 -5 0 -10 -9 -10 -21 0 -27 -24 -19 -28 9 -2 12 -8 22 -13 22 -11 0 -12 43
-2 54 4 4 30 6 58 4 46 -3 50 -5 53 -30z"/>
<path d="M34 2589 c-7 -11 12 -29 31 -29 6 1 2 5 -8 11 -9 6 -15 14 -12 20 4
5 4 9 1 9 -3 0 -8 -5 -12 -11z"/>
<path d="M234 2593 c3 -6 -2 -16 -11 -22 -10 -6 -13 -10 -8 -11 6 0 17 5 25
10 13 8 13 11 1 22 -9 8 -12 9 -7 1z"/>
<path d="M314 2589 c-7 -11 12 -29 31 -29 6 1 2 5 -8 11 -9 6 -15 14 -12 20 4
5 4 9 1 9 -3 0 -8 -5 -12 -11z"/>
<path d="M514 2593 c3 -6 -2 -16 -11 -22 -10 -6 -13 -10 -8 -11 6 0 17 5 25
10 13 8 13 11 1 22 -9 8 -12 9 -7 1z"/>
<path d="M113 2553 c15 -2 39 -2 55 0 15 2 2 4 -28 4 -30 0 -43 -2 -27 -4z"/>
<path d="M393 2553 c15 -2 39 -2 55 0 15 2 2 4 -28 4 -30 0 -43 -2 -27 -4z"/>
<path d="M103 2481 c-3 -11 -13 -21 -22 -24 -12 -3 -20 -18 -25 -43 -3 -22 -8
-52 -11 -69 -4 -21 1 -38 14 -55 17 -22 28 -25 81 -25 53 0 64 3 81 25 13 17
18 34 14 55 -3 17 -8 47 -11 69 -5 25 -13 40 -25 43 -9 3 -19 13 -22 24 -4 14
-14 19 -37 19 -23 0 -33 -5 -37 -19z m50 -8 c-7 -2 -19 -2 -25 0 -7 3 -2 5 12
5 14 0 19 -2 13 -5z m42 -32 c3 -6 10 -35 16 -65 14 -75 -4 -96 -78 -96 -47 0
-54 3 -67 28 -9 18 -11 33 -5 43 5 8 9 30 9 50 0 20 3 39 7 42 10 11 111 8
118 -2z"/>
<path d="M100 2410 c0 -5 18 -10 40 -10 22 0 40 5 40 10 0 6 -18 10 -40 10
-22 0 -40 -4 -40 -10z"/>
<path d="M112 2361 c-8 -4 -12 -21 -10 -37 2 -25 7 -29 32 -29 36 0 56 27 40
53 -13 19 -43 26 -62 13z m48 -31 c0 -13 -7 -20 -20 -20 -13 0 -20 7 -20 20 0
13 7 20 20 20 13 0 20 -7 20 -20z"/>
<path d="M383 2481 c-3 -11 -13 -21 -23 -24 -12 -3 -20 -18 -23 -43 -3 -22 -8
-52 -12 -69 -4 -21 0 -37 14 -55 17 -22 28 -25 81 -25 53 0 64 3 81 25 14 18
18 34 14 55 -4 17 -9 47 -12 69 -3 25 -11 40 -23 43 -10 3 -20 13 -23 24 -4
14 -14 19 -37 19 -23 0 -33 -5 -37 -19z m50 -8 c-7 -2 -19 -2 -25 0 -7 3 -2 5
12 5 14 0 19 -2 13 -5z m45 -40 c5 -10 13 -40 16 -66 10 -67 -8 -87 -78 -87
-66 0 -79 18 -70 93 4 29 11 58 17 65 15 19 104 16 115 -5z"/>
<path d="M380 2410 c0 -5 18 -10 40 -10 22 0 40 5 40 10 0 6 -18 10 -40 10
-22 0 -40 -4 -40 -10z"/>
<path d="M392 2358 c-30 -30 0 -75 43 -64 41 11 29 76 -15 76 -9 0 -21 -5 -28
-12z m48 -28 c0 -13 -7 -20 -20 -20 -13 0 -20 7 -20 20 0 13 7 20 20 20 13 0
20 -7 20 -20z"/>
<path d="M30 2206 c0 -3 7 -21 16 -39 15 -31 15 -36 -1 -66 -9 -18 -14 -35
-11 -38 3 -3 28 12 57 33 l52 38 -26 21 c-34 26 -87 58 -87 51z m69 -59 c8
-10 7 -17 -1 -25 -18 -18 -23 -15 -23 13 0 28 7 31 24 12z"/>
<path d="M310 2205 c0 -3 7 -20 16 -36 14 -28 14 -34 0 -71 l-16 -39 30 18
c17 9 42 27 57 39 l26 21 -44 30 c-59 40 -69 45 -69 38z m64 -53 c15 -18 15
-20 -3 -36 -18 -17 -19 -16 -19 18 0 20 1 36 2 36 2 0 10 -8 20 -18z"/>
<path d="M195 2108 c-22 -16 -44 -33 -49 -38 -4 -4 16 -24 45 -44 29 -19 55
-34 57 -32 2 2 -4 19 -13 36 -14 26 -14 37 -5 61 19 44 9 49 -35 17z m11 -43
c0 -33 -1 -34 -18 -18 -17 15 -17 17 -2 35 10 10 18 18 19 18 0 0 1 -16 1 -35z"/>
<path d="M475 2108 c-22 -16 -44 -33 -49 -38 -4 -4 16 -24 45 -44 29 -19 55
-34 57 -32 2 2 -4 19 -13 36 -14 26 -14 37 -5 61 19 44 9 49 -35 17z m11 -42
c0 -30 -2 -32 -18 -22 -26 16 -21 31 18 56 0 0 0 -15 0 -34z"/>
<path d="M53 1918 c-11 -14 -22 -54 -30 -110 -4 -34 -2 -39 21 -48 14 -5 26
-16 26 -24 0 -24 64 -40 105 -26 19 6 35 18 35 26 0 8 11 19 25 24 29 11 34
53 11 85 -7 10 -11 27 -8 37 10 39 -42 64 -68 33 -7 -8 -20 -15 -30 -15 -10 0
-23 7 -30 15 -15 18 -44 20 -57 3z m47 -28 c0 -13 -7 -20 -20 -20 -13 0 -20 7
-20 20 0 13 7 20 20 20 13 0 20 -7 20 -20z m120 0 c0 -13 -7 -20 -20 -20 -13
0 -20 7 -20 20 0 13 7 20 20 20 13 0 20 -7 20 -20z m-60 -30 c0 -13 -7 -20
-20 -20 -13 0 -20 7 -20 20 0 13 7 20 20 20 13 0 20 -7 20 -20z m-60 -19 c0
-6 -4 -13 -10 -16 -5 -3 -10 -17 -10 -31 0 -19 -5 -25 -17 -22 -19 3 -29 39
-19 64 6 15 56 20 56 5z m135 -30 c0 -45 -17 -49 -35 -9 -7 18 -15 37 -18 41
-2 5 9 7 24 5 26 -3 29 -7 29 -37z m-50 -41 l0 -45 -45 0 c-44 0 -45 1 -48 33
-5 54 2 64 50 60 l43 -3 0 -45z"/>
<path d="M330 1915 c-7 -8 -10 -23 -8 -33 3 -10 -1 -23 -9 -30 -7 -7 -13 -28
-13 -48 0 -28 5 -36 25 -44 14 -5 25 -16 25 -24 0 -24 64 -40 105 -26 19 6 35
18 35 26 0 8 11 19 25 24 29 11 34 53 11 85 -7 10 -11 27 -8 37 10 39 -42 64
-68 33 -7 -8 -20 -15 -30 -15 -10 0 -23 7 -30 15 -16 19 -44 19 -60 0z m50
-25 c0 -13 -7 -20 -20 -20 -13 0 -20 7 -20 20 0 13 7 20 20 20 13 0 20 -7 20
-20z m120 0 c0 -13 -7 -20 -20 -20 -13 0 -20 7 -20 20 0 13 7 20 20 20 13 0
20 -7 20 -20z m-60 -30 c0 -13 -7 -20 -20 -20 -13 0 -20 7 -20 20 0 13 7 20
20 20 13 0 20 -7 20 -20z m-62 -17 c-3 -5 -10 -23 -17 -41 -15 -36 -34 -38
-39 -3 -5 35 5 51 34 51 14 0 24 -3 22 -7z m140 -35 c4 -48 -18 -51 -38 -5 -7
17 -15 36 -18 40 -2 5 9 7 24 5 26 -3 29 -8 32 -40z m-53 -38 l0 -45 -45 0
c-44 0 -45 1 -48 33 -5 54 2 64 50 60 l43 -3 0 -45z"/>
<path d="M34 1637 c-2 -7 -4 -54 -2 -103 l3 -89 59 -3 c32 -2 64 2 69 7 8 8
-8 11 -51 11 l-62 0 0 85 0 85 90 0 90 0 0 -55 c0 -32 4 -55 10 -55 7 0 10 24
8 63 l-3 62 -103 3 c-79 2 -104 0 -108 -11z"/>
<path d="M314 1637 c-2 -7 -4 -54 -2 -103 l3 -89 59 -3 c32 -2 64 2 69 7 8 8
-8 11 -51 11 l-62 0 0 85 0 85 90 0 90 0 0 -55 c0 -32 4 -55 10 -55 7 0 10 24
8 63 l-3 62 -103 3 c-79 2 -104 0 -108 -11z"/>
<path d="M74 1595 c-11 -27 10 -36 72 -33 51 3 59 6 59 23 0 18 -8 20 -63 23
-50 2 -63 0 -68 -13z m94 -12 c-16 -2 -40 -2 -55 0 -16 2 -3 4 27 4 30 0 43
-2 28 -4z"/>
<path d="M354 1595 c-11 -27 10 -36 72 -33 51 3 59 6 59 23 0 18 -8 20 -63 23
-50 2 -63 0 -68 -13z m94 -12 c-16 -2 -40 -2 -55 0 -16 2 -3 4 27 4 30 0 43
-2 28 -4z"/>
<path d="M70 1530 c0 -5 18 -10 40 -10 22 0 40 5 40 10 0 6 -18 10 -40 10 -22
0 -40 -4 -40 -10z"/>
<path d="M350 1530 c0 -5 18 -10 40 -10 22 0 40 5 40 10 0 6 -18 10 -40 10
-22 0 -40 -4 -40 -10z"/>
<path d="M70 1490 c0 -5 18 -10 40 -10 22 0 40 5 40 10 0 6 -18 10 -40 10 -22
0 -40 -4 -40 -10z"/>
<path d="M180 1490 c0 -5 10 -10 22 -10 l21 0 -23 -25 c-13 -14 -20 -28 -17
-32 4 -3 18 4 32 17 21 19 25 21 25 7 0 -9 5 -17 10 -17 6 0 10 16 10 35 0 34
-1 35 -40 35 -22 0 -40 -4 -40 -10z"/>
<path d="M350 1490 c0 -5 18 -10 40 -10 22 0 40 5 40 10 0 6 -18 10 -40 10
-22 0 -40 -4 -40 -10z"/>
<path d="M460 1490 c0 -5 10 -10 22 -10 l21 0 -23 -25 c-31 -32 -17 -46 15
-15 21 19 25 21 25 7 0 -9 5 -17 10 -17 6 0 10 16 10 35 0 34 -1 35 -40 35
-22 0 -40 -4 -40 -10z"/>
<path d="M80 1358 c-70 -37 -58 -146 19 -163 15 -3 38 -2 52 4 20 7 29 4 56
-22 42 -40 56 -26 16 16 -26 27 -29 36 -22 56 12 31 3 74 -20 95 -25 22 -72
29 -101 14z m90 -28 c43 -43 11 -120 -50 -120 -38 0 -70 32 -70 70 0 38 32 70
70 70 17 0 39 -9 50 -20z"/>
<path d="M110 1321 c0 -5 9 -11 20 -14 11 -3 20 -12 20 -21 0 -9 5 -16 10 -16
16 0 11 26 -8 43 -20 18 -42 22 -42 8z"/>
<path d="M360 1358 c-70 -37 -58 -146 19 -163 15 -3 38 -2 52 4 20 7 29 4 56
-22 42 -40 56 -26 16 16 -26 27 -29 36 -22 56 12 31 3 74 -20 95 -25 22 -72
29 -101 14z m90 -28 c43 -43 11 -120 -50 -120 -38 0 -70 32 -70 70 0 38 32 70
70 70 17 0 39 -9 50 -20z"/>
<path d="M390 1321 c0 -5 9 -11 20 -14 11 -3 20 -12 20 -21 0 -9 5 -16 10 -16
16 0 11 26 -8 43 -20 18 -42 22 -42 8z"/>
<path d="M48 1078 c25 -12 51 -90 49 -143 -2 -28 1 -30 37 -33 25 -2 36 0 31
7 -3 6 -20 11 -36 11 -26 0 -28 2 -20 18 7 13 31 22 80 31 68 12 71 14 71 40
0 27 -2 28 -82 39 -51 8 -87 18 -94 27 -6 8 -22 15 -35 14 l-24 0 23 -11z
m185 -55 c4 -2 7 -10 7 -18 0 -9 -20 -15 -61 -20 -33 -4 -62 -5 -64 -4 -2 2
-7 17 -11 33 l-7 28 64 -7 c35 -4 67 -9 72 -12z"/>
<path d="M327 1078 c26 -13 53 -87 50 -138 -2 -34 -1 -35 37 -38 25 -2 36 0
31 7 -3 6 -20 11 -36 11 -26 0 -28 2 -19 19 7 14 29 22 80 31 67 11 70 13 70
39 0 27 -2 28 -82 38 -54 7 -86 17 -94 27 -6 9 -22 16 -35 15 l-24 0 22 -11z
m141 -44 c41 -5 52 -11 52 -24 0 -15 -12 -19 -61 -25 -33 -4 -62 -5 -64 -4 -2
2 -6 16 -10 32 -8 31 -6 31 83 21z"/>
<path d="M180 930 c0 -5 10 -10 22 -10 l21 0 -23 -25 c-31 -32 -17 -46 15 -15
21 19 25 21 25 7 0 -9 5 -17 10 -17 6 0 10 16 10 35 0 34 -1 35 -40 35 -22 0
-40 -4 -40 -10z"/>
<path d="M460 930 c0 -5 10 -10 22 -10 l21 0 -23 -25 c-31 -32 -17 -46 15 -15
21 19 25 21 25 7 0 -9 5 -17 10 -17 6 0 10 16 10 35 0 34 -1 35 -40 35 -22 0
-40 -4 -40 -10z"/>
<path d="M76 881 c-4 -5 -2 -12 3 -15 5 -4 12 -2 15 3 4 5 2 12 -3 15 -5 4
-12 2 -15 -3z"/>
<path d="M356 881 c-4 -5 -2 -12 3 -15 5 -4 12 -2 15 3 4 5 2 12 -3 15 -5 4
-12 2 -15 -3z"/>
<path d="M40 800 c-17 -17 -20 -33 -20 -100 0 -67 3 -83 20 -100 17 -17 33
-20 100 -20 109 0 120 11 120 120 0 109 -11 120 -120 120 -67 0 -83 -3 -100
-20z m188 -12 c16 -16 16 -160 0 -176 -7 -7 -42 -12 -88 -12 -46 0 -81 5 -88
12 -16 16 -16 160 0 176 7 7 42 12 88 12 46 0 81 -5 88 -12z"/>
<path d="M60 760 c0 -6 33 -10 80 -10 47 0 80 4 80 10 0 6 -33 10 -80 10 -47
0 -80 -4 -80 -10z"/>
<path d="M60 720 c0 -6 33 -10 80 -10 47 0 80 4 80 10 0 6 -33 10 -80 10 -47
0 -80 -4 -80 -10z"/>
<path d="M60 680 c0 -6 33 -10 80 -10 47 0 80 4 80 10 0 6 -33 10 -80 10 -47
0 -80 -4 -80 -10z"/>
<path d="M60 640 c0 -6 33 -10 80 -10 47 0 80 4 80 10 0 6 -33 10 -80 10 -47
0 -80 -4 -80 -10z"/>
<path d="M320 800 c-17 -17 -20 -33 -20 -100 0 -67 3 -83 20 -100 17 -17 33
-20 100 -20 109 0 120 11 120 120 0 109 -11 120 -120 120 -67 0 -83 -3 -100
-20z m180 -40 c0 -6 -33 -10 -80 -10 -47 0 -80 4 -80 10 0 6 33 10 80 10 47 0
80 -4 80 -10z m0 -40 c0 -6 -33 -10 -80 -10 -47 0 -80 4 -80 10 0 6 33 10 80
10 47 0 80 -4 80 -10z m0 -40 c0 -6 -33 -10 -80 -10 -47 0 -80 4 -80 10 0 6
33 10 80 10 47 0 80 -4 80 -10z m0 -40 c0 -6 -33 -10 -80 -10 -47 0 -80 4 -80
10 0 6 33 10 80 10 47 0 80 -4 80 -10z"/>
<path d="M105 493 c-15 -26 -37 -63 -48 -82 l-20 -33 50 7 51 7 -5 -46 c-4
-28 -2 -46 5 -46 8 0 49 63 100 154 3 5 -17 6 -46 2 l-52 -7 6 33 c10 50 10
50 -2 55 -7 2 -24 -18 -39 -44z m21 -29 l-7 -35 47 7 46 7 -28 -49 c-37 -65
-38 -65 -31 -20 l6 38 -45 -7 -46 -7 28 51 c16 28 31 51 33 51 2 0 0 -16 -3
-36z"/>
<path d="M370 468 c-24 -40 -45 -77 -48 -82 -2 -4 18 -5 47 -1 l51 7 -6 -34
c-10 -50 -10 -50 2 -55 7 -2 24 18 39 44 15 26 37 63 48 82 l20 33 -50 -7 -51
-7 5 46 c4 28 2 46 -5 46 -5 0 -29 -33 -52 -72z m37 -3 l-6 -34 46 6 46 6 -28
-49 c-37 -65 -39 -65 -32 -21 l6 38 -46 -7 -46 -7 29 52 c16 28 31 51 33 51 2
0 1 -16 -2 -35z"/>
<path d="M44 247 c-2 -7 -3 -60 -2 -118 l3 -104 58 -3 c35 -2 57 1 57 8 0 5
-22 10 -50 10 l-50 0 0 100 0 100 80 0 80 0 0 -60 c0 -35 4 -60 10 -60 7 0 10
25 8 68 l-3 67 -93 3 c-70 2 -94 0 -98 -11z"/>
<path d="M324 247 c-2 -7 -3 -60 -2 -118 l3 -104 58 -3 c35 -2 57 1 57 8 0 5
-22 10 -50 10 l-50 0 0 100 0 100 80 0 80 0 0 -60 c0 -35 4 -60 10 -60 7 0 10
25 8 68 l-3 67 -93 3 c-70 2 -94 0 -98 -11z"/>
<path d="M118 213 c-36 -9 -20 -33 22 -33 29 0 40 4 40 15 0 8 -4 15 -9 15 -5
0 -15 2 -23 4 -7 2 -21 2 -30 -1z"/>
<path d="M398 213 c-36 -9 -20 -33 22 -33 29 0 40 4 40 15 0 8 -4 15 -9 15 -5
0 -15 2 -23 4 -7 2 -21 2 -30 -1z"/>
<path d="M84 105 c-12 -30 4 -45 46 -45 25 0 39 4 35 10 -3 5 -19 10 -36 10
-16 0 -29 5 -29 10 0 6 13 10 29 10 17 0 33 5 36 10 4 6 -10 10 -35 10 -27 0
-43 -5 -46 -15z"/>
<path d="M364 105 c-12 -30 4 -45 46 -45 25 0 39 4 35 10 -3 5 -19 10 -36 10
-16 0 -29 5 -29 10 0 6 13 10 29 10 17 0 33 5 36 10 4 6 -10 10 -35 10 -27 0
-43 -5 -46 -15z"/>
<path d="M180 90 c0 -5 10 -10 22 -10 l21 0 -23 -25 c-31 -32 -17 -46 15 -15
21 19 25 21 25 7 0 -9 5 -17 10 -17 6 0 10 16 10 35 0 34 -1 35 -40 35 -22 0
-40 -4 -40 -10z"/>
<path d="M460 90 c0 -5 10 -10 22 -10 l21 0 -23 -25 c-31 -32 -17 -46 15 -15
21 19 25 21 25 7 0 -9 5 -17 10 -17 6 0 10 16 10 35 0 34 -1 35 -40 35 -22 0
-40 -4 -40 -10z"/>
</g>
</svg>
